<mxfile host="app.diagrams.net" modified="2022-12-14T14:06:09.278Z" agent="5.0 (Windows NT 10.0; Win64; x64) AppleWebKit/537.36 (KHTML, like Gecko) Chrome/108.0.0.0 Safari/537.36" etag="CTtHsHK9JZeLgxwWO_C5" version="20.7.2" type="github">
  <diagram id="6a731a19-8d31-9384-78a2-239565b7b9f0" name="Page-1">
    <mxGraphModel dx="2403" dy="877" grid="1" gridSize="10" guides="1" tooltips="1" connect="1" arrows="1" fold="1" page="1" pageScale="1" pageWidth="1169" pageHeight="827" background="none" math="0" shadow="0">
      <root>
        <mxCell id="0" />
        <mxCell id="1" parent="0" />
        <mxCell id="1351" value="MONA" style="ellipse;whiteSpace=wrap;html=1;shadow=0;fontFamily=Helvetica;fontSize=20;fontColor=#FFFFFF;align=center;strokeWidth=3;fillColor=#F08705;strokeColor=none;gradientColor=none;" parent="1" vertex="1">
          <mxGeometry x="1038.5" y="1060" width="120" height="120" as="geometry" />
        </mxCell>
        <mxCell id="1357" value="GPODÂ²" style="rounded=1;fillColor=#f5af58;strokeColor=none;strokeWidth=3;shadow=0;html=1;fontColor=#FFFFFF;" parent="1" vertex="1">
          <mxGeometry x="908.5" y="1230" width="120" height="40" as="geometry" />
        </mxCell>
        <mxCell id="1360" style="endArrow=none;strokeWidth=6;strokeColor=#f08705;html=1;exitX=0.5;exitY=1;exitDx=0;exitDy=0;entryX=0.5;entryY=0;entryDx=0;entryDy=0;" parent="1" source="1515" target="1351" edge="1">
          <mxGeometry relative="1" as="geometry">
            <mxPoint x="1096.8999800024217" y="1296.5029996367716" as="sourcePoint" />
          </mxGeometry>
        </mxCell>
        <mxCell id="1391" value="GIPOD" style="rounded=1;fillColor=#f5af58;strokeColor=none;strokeWidth=3;shadow=0;html=1;fontColor=#FFFFFF;" parent="1" vertex="1">
          <mxGeometry x="898.5" y="960" width="120" height="40" as="geometry" />
        </mxCell>
        <mxCell id="1394" value="MonaGac" style="rounded=1;fillColor=#f5af58;strokeColor=none;strokeWidth=3;shadow=0;html=1;fontColor=#FFFFFF;" parent="1" vertex="1">
          <mxGeometry x="1168.5" y="960" width="120" height="40" as="geometry" />
        </mxCell>
        <mxCell id="1398" value="GAC" style="rounded=1;fillColor=#f5af58;strokeColor=none;strokeWidth=3;shadow=0;html=1;fontColor=#FFFFFF;" parent="1" vertex="1">
          <mxGeometry x="1173.5" y="1220" width="120" height="40" as="geometry" />
        </mxCell>
        <mxCell id="1399" value="" style="edgeStyle=none;endArrow=none;strokeWidth=3;strokeColor=#F5AF58;html=1;" parent="1" source="1351" target="1357" edge="1">
          <mxGeometry x="-61.5" y="840" width="100" height="100" as="geometry">
            <mxPoint x="-61.5" y="940" as="sourcePoint" />
            <mxPoint x="38.5" y="840" as="targetPoint" />
          </mxGeometry>
        </mxCell>
        <mxCell id="1403" value="" style="edgeStyle=none;endArrow=none;strokeWidth=3;strokeColor=#F5AF58;html=1;" parent="1" source="1351" target="1391" edge="1">
          <mxGeometry x="-61.5" y="840" width="100" height="100" as="geometry">
            <mxPoint x="-61.5" y="940" as="sourcePoint" />
            <mxPoint x="38.5" y="840" as="targetPoint" />
          </mxGeometry>
        </mxCell>
        <mxCell id="1406" value="" style="edgeStyle=none;endArrow=none;strokeWidth=3;strokeColor=#F5AF58;html=1;" parent="1" source="1351" target="1394" edge="1">
          <mxGeometry x="-61.5" y="840" width="100" height="100" as="geometry">
            <mxPoint x="-61.5" y="940" as="sourcePoint" />
            <mxPoint x="38.5" y="840" as="targetPoint" />
          </mxGeometry>
        </mxCell>
        <mxCell id="1410" value="" style="edgeStyle=none;endArrow=none;strokeWidth=3;strokeColor=#F5AF58;html=1;" parent="1" source="1351" target="1398" edge="1">
          <mxGeometry x="-61.5" y="840" width="100" height="100" as="geometry">
            <mxPoint x="-61.5" y="940" as="sourcePoint" />
            <mxPoint x="38.5" y="840" as="targetPoint" />
          </mxGeometry>
        </mxCell>
        <mxCell id="1515" value="MSW" style="ellipse;whiteSpace=wrap;html=1;shadow=0;fontFamily=Helvetica;fontSize=30;fontColor=#2F5B7C;align=center;strokeColor=#2F5B7C;strokeWidth=6;fillColor=#FFFFFF;fontStyle=1;gradientColor=none;" parent="1" vertex="1">
          <mxGeometry x="961" y="676.5" width="270" height="270" as="geometry" />
        </mxCell>
      </root>
    </mxGraphModel>
  </diagram>
</mxfile>
